<mxfile host="Electron" modified="2024-05-05T19:18:44.526Z" agent="Mozilla/5.0 (Macintosh; Intel Mac OS X 10_15_7) AppleWebKit/537.36 (KHTML, like Gecko) draw.io/24.2.5 Chrome/120.0.6099.109 Electron/28.1.0 Safari/537.36" etag="sgcaK5JG5Ycg-1_pSi7z" version="24.2.5" type="device">
  <diagram name="Página-1" id="wpr3pBIpoUip04HzEn6h">
    <mxGraphModel dx="967" dy="701" grid="1" gridSize="10" guides="1" tooltips="1" connect="1" arrows="1" fold="1" page="1" pageScale="1" pageWidth="1169" pageHeight="1654" math="0" shadow="0">
      <root>
        <mxCell id="0" />
        <mxCell id="1" parent="0" />
        <mxCell id="ECzDEPBXJ9Gx6K2N4yYG-2" value="Profissional de Saúde" style="html=1;whiteSpace=wrap;" parent="1" vertex="1">
          <mxGeometry x="433" y="118.13" width="110" height="50" as="geometry" />
        </mxCell>
        <mxCell id="ECzDEPBXJ9Gx6K2N4yYG-3" value="&lt;u&gt;NIF&lt;/u&gt;" style="ellipse;whiteSpace=wrap;html=1;" parent="1" vertex="1">
          <mxGeometry x="336" y="58.13" width="50" height="30" as="geometry" />
        </mxCell>
        <mxCell id="ECzDEPBXJ9Gx6K2N4yYG-4" value="nome" style="ellipse;whiteSpace=wrap;html=1;" parent="1" vertex="1">
          <mxGeometry x="396" y="58.13" width="50" height="30" as="geometry" />
        </mxCell>
        <mxCell id="ECzDEPBXJ9Gx6K2N4yYG-5" value="morada" style="ellipse;whiteSpace=wrap;html=1;" parent="1" vertex="1">
          <mxGeometry x="460" y="58.13" width="50" height="30" as="geometry" />
        </mxCell>
        <mxCell id="ECzDEPBXJ9Gx6K2N4yYG-6" value="telefone" style="ellipse;whiteSpace=wrap;html=1;" parent="1" vertex="1">
          <mxGeometry x="520" y="58.13" width="60" height="30" as="geometry" />
        </mxCell>
        <mxCell id="ECzDEPBXJ9Gx6K2N4yYG-7" value="IBAN" style="ellipse;whiteSpace=wrap;html=1;" parent="1" vertex="1">
          <mxGeometry x="590" y="58.13" width="50" height="30" as="geometry" />
        </mxCell>
        <mxCell id="ECzDEPBXJ9Gx6K2N4yYG-9" value="" style="endArrow=none;html=1;rounded=0;exitX=1;exitY=1;exitDx=0;exitDy=0;entryX=0.022;entryY=0.002;entryDx=0;entryDy=0;entryPerimeter=0;" parent="1" source="ECzDEPBXJ9Gx6K2N4yYG-3" target="ECzDEPBXJ9Gx6K2N4yYG-2" edge="1">
          <mxGeometry width="50" height="50" relative="1" as="geometry">
            <mxPoint x="463" y="198.13" as="sourcePoint" />
            <mxPoint x="513" y="148.13" as="targetPoint" />
          </mxGeometry>
        </mxCell>
        <mxCell id="ECzDEPBXJ9Gx6K2N4yYG-10" value="" style="endArrow=none;html=1;rounded=0;entryX=0.693;entryY=0.97;entryDx=0;entryDy=0;entryPerimeter=0;exitX=0.25;exitY=0;exitDx=0;exitDy=0;" parent="1" source="ECzDEPBXJ9Gx6K2N4yYG-2" target="ECzDEPBXJ9Gx6K2N4yYG-4" edge="1">
          <mxGeometry width="50" height="50" relative="1" as="geometry">
            <mxPoint x="463" y="198.13" as="sourcePoint" />
            <mxPoint x="513" y="148.13" as="targetPoint" />
          </mxGeometry>
        </mxCell>
        <mxCell id="ECzDEPBXJ9Gx6K2N4yYG-11" value="" style="endArrow=none;html=1;rounded=0;entryX=0.5;entryY=1;entryDx=0;entryDy=0;exitX=0.469;exitY=0.008;exitDx=0;exitDy=0;exitPerimeter=0;" parent="1" source="ECzDEPBXJ9Gx6K2N4yYG-2" target="ECzDEPBXJ9Gx6K2N4yYG-5" edge="1">
          <mxGeometry width="50" height="50" relative="1" as="geometry">
            <mxPoint x="463" y="198.13" as="sourcePoint" />
            <mxPoint x="513" y="148.13" as="targetPoint" />
          </mxGeometry>
        </mxCell>
        <mxCell id="ECzDEPBXJ9Gx6K2N4yYG-12" value="" style="endArrow=none;html=1;rounded=0;entryX=0.315;entryY=0.97;entryDx=0;entryDy=0;entryPerimeter=0;exitX=0.75;exitY=0;exitDx=0;exitDy=0;" parent="1" source="ECzDEPBXJ9Gx6K2N4yYG-2" target="ECzDEPBXJ9Gx6K2N4yYG-6" edge="1">
          <mxGeometry width="50" height="50" relative="1" as="geometry">
            <mxPoint x="513" y="118.13" as="sourcePoint" />
            <mxPoint x="513" y="148.13" as="targetPoint" />
          </mxGeometry>
        </mxCell>
        <mxCell id="ECzDEPBXJ9Gx6K2N4yYG-13" value="" style="endArrow=none;html=1;rounded=0;entryX=0.201;entryY=0.901;entryDx=0;entryDy=0;entryPerimeter=0;exitX=0.94;exitY=-0.001;exitDx=0;exitDy=0;exitPerimeter=0;" parent="1" source="ECzDEPBXJ9Gx6K2N4yYG-2" target="ECzDEPBXJ9Gx6K2N4yYG-7" edge="1">
          <mxGeometry width="50" height="50" relative="1" as="geometry">
            <mxPoint x="463" y="168.13" as="sourcePoint" />
            <mxPoint x="513" y="118.13" as="targetPoint" />
          </mxGeometry>
        </mxCell>
        <mxCell id="ECzDEPBXJ9Gx6K2N4yYG-14" value="Clínica" style="html=1;whiteSpace=wrap;" parent="1" vertex="1">
          <mxGeometry x="438" y="385.25" width="110" height="50" as="geometry" />
        </mxCell>
        <mxCell id="ECzDEPBXJ9Gx6K2N4yYG-16" value="&lt;u&gt;nome&lt;/u&gt;" style="ellipse;whiteSpace=wrap;html=1;" parent="1" vertex="1">
          <mxGeometry x="407.5" y="445.25" width="50" height="30" as="geometry" />
        </mxCell>
        <mxCell id="ECzDEPBXJ9Gx6K2N4yYG-17" value="morada" style="ellipse;whiteSpace=wrap;html=1;" parent="1" vertex="1">
          <mxGeometry x="464.5" y="445.25" width="50" height="30" as="geometry" />
        </mxCell>
        <mxCell id="ECzDEPBXJ9Gx6K2N4yYG-18" value="telefone" style="ellipse;whiteSpace=wrap;html=1;" parent="1" vertex="1">
          <mxGeometry x="524.5" y="445.25" width="60" height="30" as="geometry" />
        </mxCell>
        <mxCell id="ECzDEPBXJ9Gx6K2N4yYG-19" value="" style="endArrow=none;html=1;rounded=0;exitX=0.132;exitY=1.004;exitDx=0;exitDy=0;exitPerimeter=0;entryX=0.5;entryY=0;entryDx=0;entryDy=0;" parent="1" source="ECzDEPBXJ9Gx6K2N4yYG-14" target="ECzDEPBXJ9Gx6K2N4yYG-16" edge="1">
          <mxGeometry width="50" height="50" relative="1" as="geometry">
            <mxPoint x="417.5" y="446" as="sourcePoint" />
            <mxPoint x="443" y="445.25" as="targetPoint" />
          </mxGeometry>
        </mxCell>
        <mxCell id="ECzDEPBXJ9Gx6K2N4yYG-20" value="" style="endArrow=none;html=1;rounded=0;entryX=0.5;entryY=0;entryDx=0;entryDy=0;exitX=0.5;exitY=1;exitDx=0;exitDy=0;" parent="1" source="ECzDEPBXJ9Gx6K2N4yYG-14" target="ECzDEPBXJ9Gx6K2N4yYG-17" edge="1">
          <mxGeometry width="50" height="50" relative="1" as="geometry">
            <mxPoint x="457.5" y="476" as="sourcePoint" />
            <mxPoint x="507.5" y="426" as="targetPoint" />
          </mxGeometry>
        </mxCell>
        <mxCell id="ECzDEPBXJ9Gx6K2N4yYG-21" value="" style="endArrow=none;html=1;rounded=0;entryX=0.5;entryY=0;entryDx=0;entryDy=0;exitX=0.75;exitY=1;exitDx=0;exitDy=0;" parent="1" source="ECzDEPBXJ9Gx6K2N4yYG-14" target="ECzDEPBXJ9Gx6K2N4yYG-18" edge="1">
          <mxGeometry width="50" height="50" relative="1" as="geometry">
            <mxPoint x="457.5" y="476" as="sourcePoint" />
            <mxPoint x="507.5" y="426" as="targetPoint" />
          </mxGeometry>
        </mxCell>
        <mxCell id="ECzDEPBXJ9Gx6K2N4yYG-22" value="Paciente" style="html=1;whiteSpace=wrap;" parent="1" vertex="1">
          <mxGeometry x="610.5" y="1080" width="110" height="50" as="geometry" />
        </mxCell>
        <mxCell id="ECzDEPBXJ9Gx6K2N4yYG-23" value="&lt;u&gt;Nº SNS&lt;/u&gt;" style="ellipse;whiteSpace=wrap;html=1;" parent="1" vertex="1">
          <mxGeometry x="464.5" y="1010" width="50" height="30" as="geometry" />
        </mxCell>
        <mxCell id="ECzDEPBXJ9Gx6K2N4yYG-24" value="NIF" style="ellipse;whiteSpace=wrap;html=1;" parent="1" vertex="1">
          <mxGeometry x="591.5" y="1010" width="50" height="30" as="geometry" />
        </mxCell>
        <mxCell id="ECzDEPBXJ9Gx6K2N4yYG-25" value="nome" style="ellipse;whiteSpace=wrap;html=1;" parent="1" vertex="1">
          <mxGeometry x="528" y="1010" width="50" height="30" as="geometry" />
        </mxCell>
        <mxCell id="ECzDEPBXJ9Gx6K2N4yYG-26" value="morada" style="ellipse;whiteSpace=wrap;html=1;" parent="1" vertex="1">
          <mxGeometry x="761.5" y="1010" width="50" height="30" as="geometry" />
        </mxCell>
        <mxCell id="ECzDEPBXJ9Gx6K2N4yYG-27" value="telefone" style="ellipse;whiteSpace=wrap;html=1;" parent="1" vertex="1">
          <mxGeometry x="821.5" y="1010" width="60" height="30" as="geometry" />
        </mxCell>
        <mxCell id="ECzDEPBXJ9Gx6K2N4yYG-28" value="data de nascimento" style="ellipse;whiteSpace=wrap;html=1;" parent="1" vertex="1">
          <mxGeometry x="651.5" y="1010" width="100" height="30" as="geometry" />
        </mxCell>
        <mxCell id="ECzDEPBXJ9Gx6K2N4yYG-29" value="" style="endArrow=none;html=1;rounded=0;exitX=0.814;exitY=0.895;exitDx=0;exitDy=0;exitPerimeter=0;entryX=0.064;entryY=-0.004;entryDx=0;entryDy=0;entryPerimeter=0;" parent="1" source="ECzDEPBXJ9Gx6K2N4yYG-23" target="ECzDEPBXJ9Gx6K2N4yYG-22" edge="1">
          <mxGeometry width="50" height="50" relative="1" as="geometry">
            <mxPoint x="631.5" y="1060" as="sourcePoint" />
            <mxPoint x="681.5" y="1010" as="targetPoint" />
          </mxGeometry>
        </mxCell>
        <mxCell id="ECzDEPBXJ9Gx6K2N4yYG-30" value="" style="endArrow=none;html=1;rounded=0;exitX=0.25;exitY=0;exitDx=0;exitDy=0;entryX=0.5;entryY=1;entryDx=0;entryDy=0;" parent="1" source="ECzDEPBXJ9Gx6K2N4yYG-22" target="ECzDEPBXJ9Gx6K2N4yYG-25" edge="1">
          <mxGeometry width="50" height="50" relative="1" as="geometry">
            <mxPoint x="651.5" y="1070" as="sourcePoint" />
            <mxPoint x="701.5" y="1020" as="targetPoint" />
          </mxGeometry>
        </mxCell>
        <mxCell id="ECzDEPBXJ9Gx6K2N4yYG-31" value="" style="endArrow=none;html=1;rounded=0;entryX=0.5;entryY=1;entryDx=0;entryDy=0;exitX=0.393;exitY=0.002;exitDx=0;exitDy=0;exitPerimeter=0;" parent="1" source="ECzDEPBXJ9Gx6K2N4yYG-22" target="ECzDEPBXJ9Gx6K2N4yYG-24" edge="1">
          <mxGeometry width="50" height="50" relative="1" as="geometry">
            <mxPoint x="651.5" y="1070" as="sourcePoint" />
            <mxPoint x="701.5" y="1020" as="targetPoint" />
          </mxGeometry>
        </mxCell>
        <mxCell id="ECzDEPBXJ9Gx6K2N4yYG-32" value="" style="endArrow=none;html=1;rounded=0;entryX=0.29;entryY=0.959;entryDx=0;entryDy=0;entryPerimeter=0;exitX=0.5;exitY=0;exitDx=0;exitDy=0;" parent="1" source="ECzDEPBXJ9Gx6K2N4yYG-22" target="ECzDEPBXJ9Gx6K2N4yYG-28" edge="1">
          <mxGeometry width="50" height="50" relative="1" as="geometry">
            <mxPoint x="651.5" y="1080" as="sourcePoint" />
            <mxPoint x="701.5" y="1030" as="targetPoint" />
          </mxGeometry>
        </mxCell>
        <mxCell id="ECzDEPBXJ9Gx6K2N4yYG-33" value="" style="endArrow=none;html=1;rounded=0;entryX=0;entryY=1;entryDx=0;entryDy=0;exitX=0.653;exitY=0.001;exitDx=0;exitDy=0;exitPerimeter=0;" parent="1" source="ECzDEPBXJ9Gx6K2N4yYG-22" target="ECzDEPBXJ9Gx6K2N4yYG-26" edge="1">
          <mxGeometry width="50" height="50" relative="1" as="geometry">
            <mxPoint x="661.5" y="1070" as="sourcePoint" />
            <mxPoint x="711.5" y="1020" as="targetPoint" />
          </mxGeometry>
        </mxCell>
        <mxCell id="ECzDEPBXJ9Gx6K2N4yYG-34" value="" style="endArrow=none;html=1;rounded=0;entryX=0;entryY=1;entryDx=0;entryDy=0;exitX=0.889;exitY=-0.002;exitDx=0;exitDy=0;exitPerimeter=0;" parent="1" source="ECzDEPBXJ9Gx6K2N4yYG-22" target="ECzDEPBXJ9Gx6K2N4yYG-27" edge="1">
          <mxGeometry width="50" height="50" relative="1" as="geometry">
            <mxPoint x="631.5" y="1060" as="sourcePoint" />
            <mxPoint x="681.5" y="1010" as="targetPoint" />
          </mxGeometry>
        </mxCell>
        <mxCell id="ECzDEPBXJ9Gx6K2N4yYG-35" value="Sistema de Saúde" style="html=1;whiteSpace=wrap;" parent="1" vertex="1">
          <mxGeometry x="918" y="1080" width="110" height="50" as="geometry" />
        </mxCell>
        <mxCell id="ECzDEPBXJ9Gx6K2N4yYG-36" value="&lt;u&gt;nome&lt;/u&gt;" style="ellipse;whiteSpace=wrap;html=1;" parent="1" vertex="1">
          <mxGeometry x="908" y="1030" width="50" height="30" as="geometry" />
        </mxCell>
        <mxCell id="ECzDEPBXJ9Gx6K2N4yYG-37" value="" style="endArrow=none;html=1;rounded=0;entryX=0.5;entryY=1;entryDx=0;entryDy=0;exitX=0.25;exitY=0;exitDx=0;exitDy=0;" parent="1" source="ECzDEPBXJ9Gx6K2N4yYG-35" target="ECzDEPBXJ9Gx6K2N4yYG-36" edge="1">
          <mxGeometry width="50" height="50" relative="1" as="geometry">
            <mxPoint x="848" y="1150" as="sourcePoint" />
            <mxPoint x="898" y="1100" as="targetPoint" />
          </mxGeometry>
        </mxCell>
        <mxCell id="ECzDEPBXJ9Gx6K2N4yYG-38" value="" style="rhombus;whiteSpace=wrap;html=1;" parent="1" vertex="1">
          <mxGeometry x="798" y="1085" width="40" height="40" as="geometry" />
        </mxCell>
        <mxCell id="ECzDEPBXJ9Gx6K2N4yYG-39" value="" style="endArrow=none;html=1;rounded=0;exitX=1;exitY=0.5;exitDx=0;exitDy=0;entryX=0;entryY=0.5;entryDx=0;entryDy=0;" parent="1" source="ECzDEPBXJ9Gx6K2N4yYG-38" target="ECzDEPBXJ9Gx6K2N4yYG-35" edge="1">
          <mxGeometry width="50" height="50" relative="1" as="geometry">
            <mxPoint x="768" y="1110" as="sourcePoint" />
            <mxPoint x="818" y="1060" as="targetPoint" />
          </mxGeometry>
        </mxCell>
        <mxCell id="ECzDEPBXJ9Gx6K2N4yYG-40" value="" style="endArrow=none;html=1;rounded=0;exitX=1;exitY=0.5;exitDx=0;exitDy=0;entryX=0;entryY=0.5;entryDx=0;entryDy=0;" parent="1" source="ECzDEPBXJ9Gx6K2N4yYG-22" target="ECzDEPBXJ9Gx6K2N4yYG-38" edge="1">
          <mxGeometry width="50" height="50" relative="1" as="geometry">
            <mxPoint x="768" y="1110" as="sourcePoint" />
            <mxPoint x="818" y="1060" as="targetPoint" />
          </mxGeometry>
        </mxCell>
        <mxCell id="ECzDEPBXJ9Gx6K2N4yYG-41" value="tem &amp;gt;" style="text;html=1;align=center;verticalAlign=middle;whiteSpace=wrap;rounded=0;" parent="1" vertex="1">
          <mxGeometry x="793" y="1068" width="50" height="20" as="geometry" />
        </mxCell>
        <mxCell id="ECzDEPBXJ9Gx6K2N4yYG-42" value="Médico" style="html=1;whiteSpace=wrap;" parent="1" vertex="1">
          <mxGeometry x="337" y="250.13" width="110" height="50" as="geometry" />
        </mxCell>
        <mxCell id="ECzDEPBXJ9Gx6K2N4yYG-43" value="Enfermeiro" style="html=1;whiteSpace=wrap;" parent="1" vertex="1">
          <mxGeometry x="530" y="250.13" width="110" height="50" as="geometry" />
        </mxCell>
        <mxCell id="ECzDEPBXJ9Gx6K2N4yYG-44" value="" style="triangle;whiteSpace=wrap;html=1;rotation=-90;" parent="1" vertex="1">
          <mxGeometry x="474" y="188.13" width="28" height="40" as="geometry" />
        </mxCell>
        <mxCell id="ECzDEPBXJ9Gx6K2N4yYG-45" value="" style="endArrow=none;html=1;rounded=0;entryX=0.469;entryY=1.002;entryDx=0;entryDy=0;entryPerimeter=0;exitX=0.831;exitY=0.423;exitDx=0;exitDy=0;exitPerimeter=0;" parent="1" source="ECzDEPBXJ9Gx6K2N4yYG-44" target="ECzDEPBXJ9Gx6K2N4yYG-2" edge="1">
          <mxGeometry width="50" height="50" relative="1" as="geometry">
            <mxPoint x="484.32" y="199.56200000000007" as="sourcePoint" />
            <mxPoint x="484.26000000000005" y="167.88" as="targetPoint" />
          </mxGeometry>
        </mxCell>
        <mxCell id="ECzDEPBXJ9Gx6K2N4yYG-47" value="" style="endArrow=none;html=1;rounded=0;entryX=0.53;entryY=1.004;entryDx=0;entryDy=0;entryPerimeter=0;exitX=0.831;exitY=0.584;exitDx=0;exitDy=0;exitPerimeter=0;" parent="1" source="ECzDEPBXJ9Gx6K2N4yYG-44" target="ECzDEPBXJ9Gx6K2N4yYG-2" edge="1">
          <mxGeometry width="50" height="50" relative="1" as="geometry">
            <mxPoint x="491.95" y="199.13" as="sourcePoint" />
            <mxPoint x="491.95" y="168.13" as="targetPoint" />
          </mxGeometry>
        </mxCell>
        <mxCell id="ECzDEPBXJ9Gx6K2N4yYG-48" value="X" style="text;html=1;align=center;verticalAlign=middle;whiteSpace=wrap;rounded=0;" parent="1" vertex="1">
          <mxGeometry x="480.5" y="204.63" width="15" height="15" as="geometry" />
        </mxCell>
        <mxCell id="ECzDEPBXJ9Gx6K2N4yYG-49" value="" style="strokeWidth=1;html=1;shape=mxgraph.flowchart.annotation_2;align=left;labelPosition=right;pointerEvents=1;rotation=90;" parent="1" vertex="1">
          <mxGeometry x="474.25" y="139.88" width="27.5" height="192" as="geometry" />
        </mxCell>
        <mxCell id="ECzDEPBXJ9Gx6K2N4yYG-50" value="Sei que esta ligação está mal, temos de ver depois qual é&lt;div&gt;&lt;font color=&quot;#ff3333&quot;&gt;(confirmar a identificação do sistema de saúde com o nº sns do paciente)&lt;/font&gt;&lt;/div&gt;" style="text;html=1;align=center;verticalAlign=middle;whiteSpace=wrap;rounded=0;" parent="1" vertex="1">
          <mxGeometry x="666.89" y="1140" width="287" height="80" as="geometry" />
        </mxCell>
        <mxCell id="ECzDEPBXJ9Gx6K2N4yYG-52" value="Serviço de Saúde" style="html=1;whiteSpace=wrap;" parent="1" vertex="1">
          <mxGeometry x="217.5" y="500" width="110" height="50" as="geometry" />
        </mxCell>
        <mxCell id="ECzDEPBXJ9Gx6K2N4yYG-53" value="Serviço de Enfermagem" style="html=1;whiteSpace=wrap;" parent="1" vertex="1">
          <mxGeometry x="121" y="632.25" width="110" height="50" as="geometry" />
        </mxCell>
        <mxCell id="ECzDEPBXJ9Gx6K2N4yYG-54" value="Consulta" style="html=1;whiteSpace=wrap;" parent="1" vertex="1">
          <mxGeometry x="314" y="632.25" width="110" height="50" as="geometry" />
        </mxCell>
        <mxCell id="ECzDEPBXJ9Gx6K2N4yYG-55" value="" style="triangle;whiteSpace=wrap;html=1;rotation=-90;" parent="1" vertex="1">
          <mxGeometry x="258" y="570.25" width="28" height="40" as="geometry" />
        </mxCell>
        <mxCell id="ECzDEPBXJ9Gx6K2N4yYG-56" value="" style="endArrow=none;html=1;rounded=0;entryX=0.469;entryY=1.002;entryDx=0;entryDy=0;entryPerimeter=0;exitX=0.831;exitY=0.423;exitDx=0;exitDy=0;exitPerimeter=0;" parent="1" source="ECzDEPBXJ9Gx6K2N4yYG-55" edge="1">
          <mxGeometry width="50" height="50" relative="1" as="geometry">
            <mxPoint x="268.31999999999994" y="581.682" as="sourcePoint" />
            <mxPoint x="269" y="550.25" as="targetPoint" />
          </mxGeometry>
        </mxCell>
        <mxCell id="ECzDEPBXJ9Gx6K2N4yYG-57" value="" style="endArrow=none;html=1;rounded=0;entryX=0.53;entryY=1.004;entryDx=0;entryDy=0;entryPerimeter=0;exitX=0.831;exitY=0.584;exitDx=0;exitDy=0;exitPerimeter=0;" parent="1" source="ECzDEPBXJ9Gx6K2N4yYG-55" edge="1">
          <mxGeometry width="50" height="50" relative="1" as="geometry">
            <mxPoint x="275.95000000000005" y="581.25" as="sourcePoint" />
            <mxPoint x="275" y="550.25" as="targetPoint" />
          </mxGeometry>
        </mxCell>
        <mxCell id="ECzDEPBXJ9Gx6K2N4yYG-58" value="X" style="text;html=1;align=center;verticalAlign=middle;whiteSpace=wrap;rounded=0;" parent="1" vertex="1">
          <mxGeometry x="264.5" y="586.75" width="15" height="15" as="geometry" />
        </mxCell>
        <mxCell id="ECzDEPBXJ9Gx6K2N4yYG-59" value="" style="strokeWidth=1;html=1;shape=mxgraph.flowchart.annotation_2;align=left;labelPosition=right;pointerEvents=1;rotation=90;" parent="1" vertex="1">
          <mxGeometry x="258.25" y="522" width="27.5" height="192" as="geometry" />
        </mxCell>
        <mxCell id="ECzDEPBXJ9Gx6K2N4yYG-60" value="Sintoma" style="html=1;whiteSpace=wrap;" parent="1" vertex="1">
          <mxGeometry x="893" y="570.5" width="110" height="50" as="geometry" />
        </mxCell>
        <mxCell id="ECzDEPBXJ9Gx6K2N4yYG-61" value="Qualitativo" style="html=1;whiteSpace=wrap;" parent="1" vertex="1">
          <mxGeometry x="797.5" y="702.25" width="110" height="50" as="geometry" />
        </mxCell>
        <mxCell id="ECzDEPBXJ9Gx6K2N4yYG-62" value="Quantitativo" style="html=1;whiteSpace=wrap;" parent="1" vertex="1">
          <mxGeometry x="990.5" y="702.25" width="110" height="50" as="geometry" />
        </mxCell>
        <mxCell id="ECzDEPBXJ9Gx6K2N4yYG-63" value="" style="triangle;whiteSpace=wrap;html=1;rotation=-90;" parent="1" vertex="1">
          <mxGeometry x="934.5" y="640.25" width="28" height="40" as="geometry" />
        </mxCell>
        <mxCell id="ECzDEPBXJ9Gx6K2N4yYG-64" value="" style="endArrow=none;html=1;rounded=0;entryX=0.469;entryY=1.002;entryDx=0;entryDy=0;entryPerimeter=0;exitX=0.831;exitY=0.423;exitDx=0;exitDy=0;exitPerimeter=0;" parent="1" source="ECzDEPBXJ9Gx6K2N4yYG-63" edge="1">
          <mxGeometry width="50" height="50" relative="1" as="geometry">
            <mxPoint x="944.8199999999999" y="651.682" as="sourcePoint" />
            <mxPoint x="945.5" y="620.25" as="targetPoint" />
          </mxGeometry>
        </mxCell>
        <mxCell id="ECzDEPBXJ9Gx6K2N4yYG-65" value="" style="endArrow=none;html=1;rounded=0;entryX=0.53;entryY=1.004;entryDx=0;entryDy=0;entryPerimeter=0;exitX=0.831;exitY=0.584;exitDx=0;exitDy=0;exitPerimeter=0;" parent="1" source="ECzDEPBXJ9Gx6K2N4yYG-63" edge="1">
          <mxGeometry width="50" height="50" relative="1" as="geometry">
            <mxPoint x="952.45" y="651.25" as="sourcePoint" />
            <mxPoint x="951.5" y="620.25" as="targetPoint" />
          </mxGeometry>
        </mxCell>
        <mxCell id="ECzDEPBXJ9Gx6K2N4yYG-66" value="X" style="text;html=1;align=center;verticalAlign=middle;whiteSpace=wrap;rounded=0;" parent="1" vertex="1">
          <mxGeometry x="941" y="656.75" width="15" height="15" as="geometry" />
        </mxCell>
        <mxCell id="ECzDEPBXJ9Gx6K2N4yYG-67" value="" style="strokeWidth=1;html=1;shape=mxgraph.flowchart.annotation_2;align=left;labelPosition=right;pointerEvents=1;rotation=90;" parent="1" vertex="1">
          <mxGeometry x="934.75" y="592" width="27.5" height="192" as="geometry" />
        </mxCell>
        <mxCell id="ECzDEPBXJ9Gx6K2N4yYG-68" value="&lt;font color=&quot;#ff3333&quot;&gt;confirmar exclusividade dos sintomas e chave dos quantitativos&lt;/font&gt;" style="text;html=1;align=center;verticalAlign=middle;whiteSpace=wrap;rounded=0;" parent="1" vertex="1">
          <mxGeometry x="990.5" y="640.25" width="122.5" height="30" as="geometry" />
        </mxCell>
        <mxCell id="ECzDEPBXJ9Gx6K2N4yYG-69" value="Receita Médica" style="html=1;whiteSpace=wrap;" parent="1" vertex="1">
          <mxGeometry x="314" y="793.87" width="110" height="50" as="geometry" />
        </mxCell>
        <mxCell id="ECzDEPBXJ9Gx6K2N4yYG-70" value="&lt;u&gt;Código SNS&lt;/u&gt;" style="ellipse;whiteSpace=wrap;html=1;" parent="1" vertex="1">
          <mxGeometry x="329" y="883.12" width="80" height="30" as="geometry" />
        </mxCell>
        <mxCell id="ECzDEPBXJ9Gx6K2N4yYG-71" value="" style="endArrow=none;html=1;rounded=0;entryX=0.5;entryY=1;entryDx=0;entryDy=0;exitX=0.5;exitY=0;exitDx=0;exitDy=0;" parent="1" source="ECzDEPBXJ9Gx6K2N4yYG-70" target="ECzDEPBXJ9Gx6K2N4yYG-69" edge="1">
          <mxGeometry width="50" height="50" relative="1" as="geometry">
            <mxPoint x="274" y="951.12" as="sourcePoint" />
            <mxPoint x="324" y="901.12" as="targetPoint" />
          </mxGeometry>
        </mxCell>
        <mxCell id="SgDSknZQjqFgcELRfKV_-1" value="Especialidade" style="html=1;whiteSpace=wrap;" parent="1" vertex="1">
          <mxGeometry x="80" y="250.13" width="110" height="50" as="geometry" />
        </mxCell>
        <mxCell id="SgDSknZQjqFgcELRfKV_-2" value="&lt;u&gt;nome&lt;/u&gt;" style="ellipse;whiteSpace=wrap;html=1;" parent="1" vertex="1">
          <mxGeometry x="80" y="193.13" width="50" height="30" as="geometry" />
        </mxCell>
        <mxCell id="SgDSknZQjqFgcELRfKV_-3" value="" style="endArrow=none;html=1;rounded=0;entryX=0.526;entryY=1.012;entryDx=0;entryDy=0;entryPerimeter=0;exitX=0.25;exitY=0;exitDx=0;exitDy=0;" parent="1" source="SgDSknZQjqFgcELRfKV_-1" target="SgDSknZQjqFgcELRfKV_-2" edge="1">
          <mxGeometry width="50" height="50" relative="1" as="geometry">
            <mxPoint x="106.5" y="280" as="sourcePoint" />
            <mxPoint x="156.5" y="230" as="targetPoint" />
          </mxGeometry>
        </mxCell>
        <mxCell id="SgDSknZQjqFgcELRfKV_-5" value="" style="rhombus;whiteSpace=wrap;html=1;" parent="1" vertex="1">
          <mxGeometry x="242" y="255.13" width="40" height="40" as="geometry" />
        </mxCell>
        <mxCell id="SgDSknZQjqFgcELRfKV_-6" value="&amp;lt; tem" style="text;html=1;align=center;verticalAlign=middle;whiteSpace=wrap;rounded=0;" parent="1" vertex="1">
          <mxGeometry x="234" y="237.13" width="50" height="20" as="geometry" />
        </mxCell>
        <mxCell id="SgDSknZQjqFgcELRfKV_-9" value="" style="endArrow=none;html=1;rounded=0;exitX=0.954;exitY=0.544;exitDx=0;exitDy=0;exitPerimeter=0;" parent="1" edge="1">
          <mxGeometry width="50" height="50" relative="1" as="geometry">
            <mxPoint x="280.15999999999997" y="277.0199999999999" as="sourcePoint" />
            <mxPoint x="337" y="277.13" as="targetPoint" />
          </mxGeometry>
        </mxCell>
        <mxCell id="SgDSknZQjqFgcELRfKV_-10" value="" style="endArrow=none;html=1;rounded=0;exitX=0.954;exitY=0.544;exitDx=0;exitDy=0;exitPerimeter=0;" parent="1" edge="1">
          <mxGeometry width="50" height="50" relative="1" as="geometry">
            <mxPoint x="280" y="273.13" as="sourcePoint" />
            <mxPoint x="337" y="273.13" as="targetPoint" />
          </mxGeometry>
        </mxCell>
        <mxCell id="SgDSknZQjqFgcELRfKV_-12" value="" style="triangle;whiteSpace=wrap;html=1;rotation=-180;fillColor=#000000;" parent="1" vertex="1">
          <mxGeometry x="278" y="270.13" width="9" height="10" as="geometry" />
        </mxCell>
        <mxCell id="SgDSknZQjqFgcELRfKV_-17" value="" style="endArrow=none;html=1;rounded=0;entryX=0;entryY=0.5;entryDx=0;entryDy=0;exitX=1;exitY=0.5;exitDx=0;exitDy=0;" parent="1" source="SgDSknZQjqFgcELRfKV_-1" target="SgDSknZQjqFgcELRfKV_-5" edge="1">
          <mxGeometry width="50" height="50" relative="1" as="geometry">
            <mxPoint x="200" y="280" as="sourcePoint" />
            <mxPoint x="260" y="240" as="targetPoint" />
          </mxGeometry>
        </mxCell>
        <mxCell id="SgDSknZQjqFgcELRfKV_-19" value="" style="rhombus;whiteSpace=wrap;html=1;" parent="1" vertex="1">
          <mxGeometry x="565.5" y="339.25" width="40" height="40" as="geometry" />
        </mxCell>
        <mxCell id="SgDSknZQjqFgcELRfKV_-20" value="alocado &amp;gt;" style="text;html=1;align=center;verticalAlign=middle;whiteSpace=wrap;rounded=0;rotation=90;" parent="1" vertex="1">
          <mxGeometry x="585.5" y="351.25" width="64" height="20" as="geometry" />
        </mxCell>
        <mxCell id="SgDSknZQjqFgcELRfKV_-21" value="" style="endArrow=none;html=1;rounded=0;exitX=0.421;exitY=0.076;exitDx=0;exitDy=0;exitPerimeter=0;entryX=0.474;entryY=1.003;entryDx=0;entryDy=0;entryPerimeter=0;" parent="1" source="SgDSknZQjqFgcELRfKV_-19" target="ECzDEPBXJ9Gx6K2N4yYG-43" edge="1">
          <mxGeometry width="50" height="50" relative="1" as="geometry">
            <mxPoint x="410" y="390" as="sourcePoint" />
            <mxPoint x="460" y="340" as="targetPoint" />
          </mxGeometry>
        </mxCell>
        <mxCell id="SgDSknZQjqFgcELRfKV_-22" value="" style="endArrow=none;html=1;rounded=0;exitX=0.421;exitY=0.076;exitDx=0;exitDy=0;exitPerimeter=0;entryX=0.474;entryY=1.003;entryDx=0;entryDy=0;entryPerimeter=0;" parent="1" edge="1">
          <mxGeometry width="50" height="50" relative="1" as="geometry">
            <mxPoint x="588.5" y="342.13" as="sourcePoint" />
            <mxPoint x="588.5" y="300.13" as="targetPoint" />
          </mxGeometry>
        </mxCell>
        <mxCell id="SgDSknZQjqFgcELRfKV_-23" value="" style="triangle;whiteSpace=wrap;html=1;rotation=90;fillColor=#000000;" parent="1" vertex="1">
          <mxGeometry x="581.61" y="336.86" width="7.78" height="9.28" as="geometry" />
        </mxCell>
        <mxCell id="SgDSknZQjqFgcELRfKV_-30" value="" style="endArrow=none;html=1;rounded=0;entryX=1;entryY=0.5;entryDx=0;entryDy=0;endSize=6;exitX=0.5;exitY=1;exitDx=0;exitDy=0;" parent="1" source="SgDSknZQjqFgcELRfKV_-19" edge="1">
          <mxGeometry width="50" height="50" relative="1" as="geometry">
            <mxPoint x="587.5" y="379.25" as="sourcePoint" />
            <mxPoint x="548" y="410.25" as="targetPoint" />
            <Array as="points">
              <mxPoint x="585" y="410" />
            </Array>
          </mxGeometry>
        </mxCell>
        <mxCell id="SgDSknZQjqFgcELRfKV_-33" value="" style="rhombus;whiteSpace=wrap;html=1;" parent="1" vertex="1">
          <mxGeometry x="373.5" y="339.37" width="40" height="40" as="geometry" />
        </mxCell>
        <mxCell id="SgDSknZQjqFgcELRfKV_-34" value="" style="endArrow=none;html=1;rounded=0;exitX=0.421;exitY=0.076;exitDx=0;exitDy=0;exitPerimeter=0;entryX=0.474;entryY=1.003;entryDx=0;entryDy=0;entryPerimeter=0;" parent="1" source="SgDSknZQjqFgcELRfKV_-33" edge="1">
          <mxGeometry width="50" height="50" relative="1" as="geometry">
            <mxPoint x="218" y="390.12" as="sourcePoint" />
            <mxPoint x="390" y="300.12" as="targetPoint" />
          </mxGeometry>
        </mxCell>
        <mxCell id="SgDSknZQjqFgcELRfKV_-35" value="" style="endArrow=none;html=1;rounded=0;exitX=0.421;exitY=0.076;exitDx=0;exitDy=0;exitPerimeter=0;entryX=0.474;entryY=1.003;entryDx=0;entryDy=0;entryPerimeter=0;" parent="1" edge="1">
          <mxGeometry width="50" height="50" relative="1" as="geometry">
            <mxPoint x="396.5" y="342.25" as="sourcePoint" />
            <mxPoint x="396.5" y="300.25" as="targetPoint" />
          </mxGeometry>
        </mxCell>
        <mxCell id="SgDSknZQjqFgcELRfKV_-36" value="" style="endArrow=none;html=1;rounded=0;entryX=0;entryY=0.5;entryDx=0;entryDy=0;endSize=6;exitX=0.5;exitY=1;exitDx=0;exitDy=0;" parent="1" source="SgDSknZQjqFgcELRfKV_-33" target="ECzDEPBXJ9Gx6K2N4yYG-14" edge="1">
          <mxGeometry width="50" height="50" relative="1" as="geometry">
            <mxPoint x="393.97999999999996" y="378.84999999999997" as="sourcePoint" />
            <mxPoint x="439" y="410.25" as="targetPoint" />
            <Array as="points">
              <mxPoint x="394" y="410.12" />
            </Array>
          </mxGeometry>
        </mxCell>
        <mxCell id="SgDSknZQjqFgcELRfKV_-38" value="" style="triangle;whiteSpace=wrap;html=1;rotation=90;fillColor=#000000;" parent="1" vertex="1">
          <mxGeometry x="389.61" y="336.25" width="7.78" height="9.28" as="geometry" />
        </mxCell>
        <mxCell id="SgDSknZQjqFgcELRfKV_-40" value="trabalha &amp;gt;" style="text;html=1;align=center;verticalAlign=middle;whiteSpace=wrap;rounded=0;rotation=90;" parent="1" vertex="1">
          <mxGeometry x="334" y="351.37" width="64" height="20" as="geometry" />
        </mxCell>
        <mxCell id="SgDSknZQjqFgcELRfKV_-41" value="RI-1" style="text;html=1;align=center;verticalAlign=middle;whiteSpace=wrap;rounded=0;rotation=90;" parent="1" vertex="1">
          <mxGeometry x="398" y="336.89" width="30" height="10" as="geometry" />
        </mxCell>
        <mxCell id="SgDSknZQjqFgcELRfKV_-42" value="RI-1: Os médicos podem trabalhar em várias clínicas ao longo da semana, mas a cada dia da semana estão alocados a uma e apenas uma, num regime fixo." style="text;html=1;align=center;verticalAlign=middle;whiteSpace=wrap;rounded=0;" parent="1" vertex="1">
          <mxGeometry x="28.5" y="349.25" width="320" height="30" as="geometry" />
        </mxCell>
        <mxCell id="8m5D9ZHBH1BfqwirOJDG-1" value="&lt;u&gt;nome&lt;/u&gt;" style="ellipse;whiteSpace=wrap;html=1;" vertex="1" parent="1">
          <mxGeometry x="827.5" y="770" width="50" height="30" as="geometry" />
        </mxCell>
        <mxCell id="8m5D9ZHBH1BfqwirOJDG-2" value="" style="endArrow=none;html=1;rounded=0;exitX=0.5;exitY=0;exitDx=0;exitDy=0;entryX=0.5;entryY=1;entryDx=0;entryDy=0;" edge="1" parent="1" source="8m5D9ZHBH1BfqwirOJDG-1" target="ECzDEPBXJ9Gx6K2N4yYG-61">
          <mxGeometry width="50" height="50" relative="1" as="geometry">
            <mxPoint x="850" y="700" as="sourcePoint" />
            <mxPoint x="900" y="650" as="targetPoint" />
          </mxGeometry>
        </mxCell>
        <mxCell id="8m5D9ZHBH1BfqwirOJDG-3" value="&lt;u&gt;valor&lt;/u&gt;" style="ellipse;whiteSpace=wrap;html=1;" vertex="1" parent="1">
          <mxGeometry x="980" y="770" width="50" height="30" as="geometry" />
        </mxCell>
        <mxCell id="8m5D9ZHBH1BfqwirOJDG-4" value="&lt;u&gt;parâmetro&lt;/u&gt;" style="ellipse;whiteSpace=wrap;html=1;" vertex="1" parent="1">
          <mxGeometry x="1050" y="770" width="72" height="30" as="geometry" />
        </mxCell>
        <mxCell id="8m5D9ZHBH1BfqwirOJDG-5" value="" style="endArrow=none;html=1;rounded=0;exitX=0.5;exitY=0;exitDx=0;exitDy=0;entryX=0.25;entryY=1;entryDx=0;entryDy=0;" edge="1" parent="1" source="8m5D9ZHBH1BfqwirOJDG-3" target="ECzDEPBXJ9Gx6K2N4yYG-62">
          <mxGeometry width="50" height="50" relative="1" as="geometry">
            <mxPoint x="990" y="780" as="sourcePoint" />
            <mxPoint x="1040" y="730" as="targetPoint" />
          </mxGeometry>
        </mxCell>
        <mxCell id="8m5D9ZHBH1BfqwirOJDG-6" value="" style="endArrow=none;html=1;rounded=0;exitX=0.5;exitY=0;exitDx=0;exitDy=0;entryX=0.75;entryY=1;entryDx=0;entryDy=0;" edge="1" parent="1" source="8m5D9ZHBH1BfqwirOJDG-4" target="ECzDEPBXJ9Gx6K2N4yYG-62">
          <mxGeometry width="50" height="50" relative="1" as="geometry">
            <mxPoint x="990" y="780" as="sourcePoint" />
            <mxPoint x="1040" y="730" as="targetPoint" />
          </mxGeometry>
        </mxCell>
        <mxCell id="8m5D9ZHBH1BfqwirOJDG-7" value="Medicamento" style="html=1;whiteSpace=wrap;" vertex="1" parent="1">
          <mxGeometry x="57" y="793.87" width="110" height="50" as="geometry" />
        </mxCell>
        <mxCell id="8m5D9ZHBH1BfqwirOJDG-8" value="&lt;font color=&quot;#ff3333&quot;&gt;Mudar texto da RI-1 para estar expresso em termos de conceitos no modelo EA&lt;/font&gt;" style="text;html=1;align=center;verticalAlign=middle;whiteSpace=wrap;rounded=0;" vertex="1" parent="1">
          <mxGeometry x="50" y="395.25" width="290" height="30" as="geometry" />
        </mxCell>
        <mxCell id="8m5D9ZHBH1BfqwirOJDG-15" value="" style="rhombus;whiteSpace=wrap;html=1;" vertex="1" parent="1">
          <mxGeometry x="219.5" y="799" width="40" height="40" as="geometry" />
        </mxCell>
        <mxCell id="8m5D9ZHBH1BfqwirOJDG-16" value="&amp;lt; contém" style="text;html=1;align=center;verticalAlign=middle;whiteSpace=wrap;rounded=0;" vertex="1" parent="1">
          <mxGeometry x="208.5" y="781" width="55.5" height="20" as="geometry" />
        </mxCell>
        <mxCell id="8m5D9ZHBH1BfqwirOJDG-17" value="" style="endArrow=none;html=1;rounded=0;exitX=0.954;exitY=0.544;exitDx=0;exitDy=0;exitPerimeter=0;entryX=0.003;entryY=0.543;entryDx=0;entryDy=0;entryPerimeter=0;" edge="1" parent="1" target="ECzDEPBXJ9Gx6K2N4yYG-69">
          <mxGeometry width="50" height="50" relative="1" as="geometry">
            <mxPoint x="257.65999999999997" y="820.8899999999999" as="sourcePoint" />
            <mxPoint x="314.5" y="821" as="targetPoint" />
          </mxGeometry>
        </mxCell>
        <mxCell id="8m5D9ZHBH1BfqwirOJDG-18" value="" style="endArrow=none;html=1;rounded=0;exitX=0.954;exitY=0.544;exitDx=0;exitDy=0;exitPerimeter=0;entryX=0.002;entryY=0.461;entryDx=0;entryDy=0;entryPerimeter=0;" edge="1" parent="1" target="ECzDEPBXJ9Gx6K2N4yYG-69">
          <mxGeometry width="50" height="50" relative="1" as="geometry">
            <mxPoint x="257.5" y="817" as="sourcePoint" />
            <mxPoint x="314.5" y="817" as="targetPoint" />
          </mxGeometry>
        </mxCell>
        <mxCell id="8m5D9ZHBH1BfqwirOJDG-20" value="" style="endArrow=none;html=1;rounded=0;entryX=0;entryY=0.5;entryDx=0;entryDy=0;exitX=1;exitY=0.5;exitDx=0;exitDy=0;" edge="1" parent="1" target="8m5D9ZHBH1BfqwirOJDG-15" source="8m5D9ZHBH1BfqwirOJDG-7">
          <mxGeometry width="50" height="50" relative="1" as="geometry">
            <mxPoint x="167.5" y="818.87" as="sourcePoint" />
            <mxPoint x="237.5" y="783.87" as="targetPoint" />
          </mxGeometry>
        </mxCell>
        <mxCell id="8m5D9ZHBH1BfqwirOJDG-21" value="quantidade" style="ellipse;whiteSpace=wrap;html=1;" vertex="1" parent="1">
          <mxGeometry x="202.13" y="855.12" width="74.75" height="30" as="geometry" />
        </mxCell>
        <mxCell id="8m5D9ZHBH1BfqwirOJDG-22" value="" style="endArrow=none;html=1;rounded=0;entryX=0.5;entryY=1;entryDx=0;entryDy=0;exitX=0.5;exitY=0;exitDx=0;exitDy=0;" edge="1" parent="1" source="8m5D9ZHBH1BfqwirOJDG-21" target="8m5D9ZHBH1BfqwirOJDG-15">
          <mxGeometry width="50" height="50" relative="1" as="geometry">
            <mxPoint x="217" y="943.87" as="sourcePoint" />
            <mxPoint x="267" y="893.87" as="targetPoint" />
          </mxGeometry>
        </mxCell>
        <mxCell id="8m5D9ZHBH1BfqwirOJDG-23" value="" style="rhombus;whiteSpace=wrap;html=1;" vertex="1" parent="1">
          <mxGeometry x="349.61" y="721.5" width="40" height="40" as="geometry" />
        </mxCell>
        <mxCell id="8m5D9ZHBH1BfqwirOJDG-24" value="" style="endArrow=none;html=1;rounded=0;exitX=0.481;exitY=-0.002;exitDx=0;exitDy=0;exitPerimeter=0;entryX=0.431;entryY=0.928;entryDx=0;entryDy=0;entryPerimeter=0;" edge="1" parent="1" source="ECzDEPBXJ9Gx6K2N4yYG-69" target="8m5D9ZHBH1BfqwirOJDG-23">
          <mxGeometry width="50" height="50" relative="1" as="geometry">
            <mxPoint x="367" y="790" as="sourcePoint" />
            <mxPoint x="367" y="758" as="targetPoint" />
          </mxGeometry>
        </mxCell>
        <mxCell id="8m5D9ZHBH1BfqwirOJDG-26" value="" style="triangle;whiteSpace=wrap;html=1;rotation=-90;fillColor=#000000;" vertex="1" parent="1">
          <mxGeometry x="365.72" y="754.25" width="7.78" height="9.28" as="geometry" />
        </mxCell>
        <mxCell id="8m5D9ZHBH1BfqwirOJDG-27" value="" style="endArrow=none;html=1;rounded=0;exitX=0.531;exitY=0.003;exitDx=0;exitDy=0;exitPerimeter=0;entryX=0.572;entryY=0.929;entryDx=0;entryDy=0;entryPerimeter=0;" edge="1" parent="1" source="ECzDEPBXJ9Gx6K2N4yYG-69" target="8m5D9ZHBH1BfqwirOJDG-23">
          <mxGeometry width="50" height="50" relative="1" as="geometry">
            <mxPoint x="372.55" y="793.87" as="sourcePoint" />
            <mxPoint x="372.55" y="758.87" as="targetPoint" />
          </mxGeometry>
        </mxCell>
        <mxCell id="8m5D9ZHBH1BfqwirOJDG-28" value="" style="endArrow=none;html=1;rounded=0;exitX=0.5;exitY=0;exitDx=0;exitDy=0;entryX=0.504;entryY=0.998;entryDx=0;entryDy=0;entryPerimeter=0;" edge="1" parent="1" source="8m5D9ZHBH1BfqwirOJDG-23" target="ECzDEPBXJ9Gx6K2N4yYG-54">
          <mxGeometry width="50" height="50" relative="1" as="geometry">
            <mxPoint x="350" y="750" as="sourcePoint" />
            <mxPoint x="400" y="700" as="targetPoint" />
          </mxGeometry>
        </mxCell>
        <mxCell id="8m5D9ZHBH1BfqwirOJDG-29" value="" style="triangle;whiteSpace=wrap;html=1;rotation=90;fillColor=#000000;" vertex="1" parent="1">
          <mxGeometry x="365.72" y="717.5" width="7.78" height="9.28" as="geometry" />
        </mxCell>
        <mxCell id="8m5D9ZHBH1BfqwirOJDG-30" value="&amp;lt; associada" style="text;html=1;align=center;verticalAlign=middle;whiteSpace=wrap;rounded=0;rotation=90;" vertex="1" parent="1">
          <mxGeometry x="357" y="724" width="80" height="30" as="geometry" />
        </mxCell>
      </root>
    </mxGraphModel>
  </diagram>
</mxfile>
